name C:\Users\r0593348\3dpredictsim\Results\batch_windlass\Pog_s1_tmt_bCst_d05_k1000_WL40_ig24.mot
datacolumns 128
datarows 4
range 1.61469637 1.64699029
endheader
time	pelvis_tilt	pelvis_list	pelvis_rotation	pelvis_tx	pelvis_ty	pelvis_tz	hip_flexion_l	hip_adduction_l	hip_rotation_l	hip_flexion_r	hip_adduction_r	hip_rotation_r	knee_angle_l	knee_angle_r	ankle_angle_l	ankle_angle_r	subtalar_angle_l	subtalar_angle_r	tmt_angle_l	tmt_angle_r	mtp_angle_l	mtp_angle_r	lumbar_extension	lumbar_bending	lumbar_rotation	arm_flex_l	arm_add_l	arm_rot_l	arm_flex_r	arm_add_r	arm_rot_r	elbow_flex_l	elbow_flex_r	pro_sup_l	pro_sup_r	glut_med1_l/activation	glut_med2_l/activation	glut_med3_l/activation	glut_min1_l/activation	glut_min2_l/activation	glut_min3_l/activation	semimem_l/activation	semiten_l/activation	bifemlh_l/activation	bifemsh_l/activation	sar_l/activation	add_long_l/activation	add_brev_l/activation	add_mag1_l/activation	add_mag2_l/activation	add_mag3_l/activation	tfl_l/activation	pect_l/activation	grac_l/activation	glut_max1_l/activation	glut_max2_l/activation	glut_max3_l/activation	iliacus_l/activation	psoas_l/activation	quad_fem_l/activation	gem_l/activation	peri_l/activation	rect_fem_l/activation	vas_med_l/activation	vas_int_l/activation	vas_lat_l/activation	med_gas_l/activation	lat_gas_l/activation	soleus_l/activation	tib_post_l/activation	flex_dig_l/activation	flex_hal_l/activation	tib_ant_l/activation	per_brev_l/activation	per_long_l/activation	per_tert_l/activation	ext_dig_l/activation	ext_hal_l/activation	ercspn_l/activation	intobl_l/activation	extobl_l/activation	glut_med1_r/activation	glut_med2_r/activation	glut_med3_r/activation	glut_min1_r/activation	glut_min2_r/activation	glut_min3_r/activation	semimem_r/activation	semiten_r/activation	bifemlh_r/activation	bifemsh_r/activation	sar_r/activation	add_long_r/activation	add_brev_r/activation	add_mag1_r/activation	add_mag2_r/activation	add_mag3_r/activation	tfl_r/activation	pect_r/activation	grac_r/activation	glut_max1_r/activation	glut_max2_r/activation	glut_max3_r/activation	iliacus_r/activation	psoas_r/activation	quad_fem_r/activation	gem_r/activation	peri_r/activation	rect_fem_r/activation	vas_med_r/activation	vas_int_r/activation	vas_lat_r/activation	med_gas_r/activation	lat_gas_r/activation	soleus_r/activation	tib_post_r/activation	flex_dig_r/activation	flex_hal_r/activation	tib_ant_r/activation	per_brev_r/activation	per_long_r/activation	per_tert_r/activation	ext_dig_r/activation	ext_hal_r/activation	ercspn_r/activation	intobl_r/activation	extobl_r/activation	
          1.61469637	         -2.92659878	          1.64057967	         -5.42840361	          2.01837046	          0.86354288	          0.00100008	         30.95702446	          2.40621201	         -1.19320392	        -16.62286413	         -1.47194588	          7.71492654	        -17.26544557	        -10.18204696	          5.34351731	          1.18962008	          1.98967851	         14.26769954	         -0.31050656	        -12.08578843	          0.70216648	         29.14196518	         -1.05644262	         -0.07369431	          1.88498935	        -10.93101967	        -13.56219349	          5.80828432	          5.43712323	        -13.46106992	         15.18307440	         17.96432056	         37.01230167	         86.51662706	         86.51662706	          0.06541349	          0.05896129	          0.05897052	          0.05000023	          0.05000033	          0.05000253	          0.05027101	          0.05897063	          0.05887601	          0.05000082	          0.05000029	          0.08780163	          0.13086398	          0.15484059	          0.15581408	          0.11772070	          0.05004251	          0.05000204	          0.05897123	          0.05897063	          0.11600894	          0.05979668	          0.05023812	          0.05432939	          0.22468338	          0.05000018	          0.05000032	          0.05101861	          0.09877107	          0.11121227	          0.08320624	          0.05000003	          0.05000015	          0.05786690	          0.05897049	          0.05897083	          0.05897099	          0.48953747	          0.34843006	          0.20467624	          0.09192149	          0.52261538	          0.19912814	          0.05211474	          0.09458680	          0.12022422	          0.31525810	          0.09989638	          0.05000033	          0.30234755	          0.20028745	          0.09837858	          0.05000173	          0.05000022	          0.05000015	          0.06574150	          0.07177925	          0.08996003	          0.05000041	          0.05000032	          0.05000098	          0.05000182	          0.23830455	          0.05000139	          0.05000032	          0.05000144	          0.05000103	          0.05000070	          0.24843438	          0.45791177	          0.05000008	          0.05000038	          0.05000010	          0.19036483	          0.06325891	          0.08788055	          0.10499820	          0.24990420	          0.32310791	          0.20092834	          0.18517321	          0.18322471	          0.23878550	          0.05000001	          0.14848010	          0.21960139	          0.05000010	          0.05000004	          0.05000008	          0.05000000	          0.05000009	          0.05000001	
          1.62546101	         -2.91779514	          1.71048129	         -5.65550174	          2.03484060	          0.86271405	          0.00077403	         30.25205789	          2.76634279	         -0.99045182	        -16.38540095	         -1.70416390	          7.45884872	        -16.68633918	        -12.17908206	          5.00660356	          0.09259992	          1.53407784	         15.03342647	         -0.39003845	        -12.55685772	          0.88242084	         29.82817472	         -0.84610476	         -0.30457208	          1.95774656	        -11.98168749	        -13.55037379	          5.61282483	          5.18912816	        -13.48407099	         15.45651924	         17.92411308	         37.98826707	         86.51662706	         86.51662706	          0.05546302	          0.05000074	          0.05000007	          0.05897058	          0.05897054	          0.05000101	          0.05000008	          0.05000013	          0.05000041	          0.05000006	          0.05000119	          0.09674551	          0.24785268	          0.13128685	          0.13211246	          0.13680611	          0.05000006	          0.08008557	          0.05000080	          0.05000017	          0.17723187	          0.17246145	          0.05897049	          0.05000737	          0.21254792	          0.18244533	          0.12523199	          0.06955051	          0.22812746	          0.22394003	          0.18954090	          0.05235327	          0.05000020	          0.05718434	          0.05000002	          0.05000029	          0.05000044	          0.65474267	          0.31847742	          0.17354118	          0.47132253	          0.60758404	          0.35033505	          0.05000004	          0.08019836	          0.10193584	          0.26730143	          0.08470026	          0.05000002	          0.25635483	          0.16981997	          0.08341336	          0.05000052	          0.05000007	          0.05000005	          0.05574101	          0.06086035	          0.14166484	          0.25410032	          0.05712094	          0.05000102	          0.05000019	          0.20205398	          0.10508969	          0.05000068	          0.05000046	          0.05000026	          0.05000018	          0.21064284	          0.40196907	          0.05000004	          0.05000017	          0.05000005	          0.16140676	          0.12507520	          0.07451315	          0.10467568	          0.21188904	          0.27395708	          0.17036334	          0.15700488	          0.15535284	          0.20246175	          0.10652220	          0.12589355	          0.18619594	          0.05000013	          0.13773315	          0.05000031	          0.05000032	          0.05777353	          0.05655078	
          1.63622565	         -2.90414054	          1.78403774	         -5.85848900	          2.05151431	          0.86157526	          0.00056288	         29.41093629	          3.10587758	         -0.71978871	        -16.06951611	         -1.92087028	          7.18861430	        -16.65351257	        -14.37558960	          4.52149940	         -0.96270905	          1.05951014	         15.71895168	         -0.53518396	        -12.72198692	          1.12690503	         29.76287824	         -0.62372633	         -0.54680592	          2.01940627	        -13.00673959	        -13.54947359	          5.50372650	          4.87883521	        -13.51540320	         15.66630929	         17.83525921	         38.94464077	         86.51662706	         86.51662706	          0.05000002	          0.05000008	          0.14287752	          0.05000007	          0.05000007	          0.05000010	          0.05000009	          0.05000019	          0.05000008	          0.05000003	          0.05000013	          0.08202873	          0.21014967	          0.32189921	          0.27178632	          0.16190473	          0.05000037	          0.06790356	          0.05000653	          0.13187647	          0.15027193	          0.14622686	          0.05000002	          0.05000005	          0.26441682	          0.15469197	          0.10618186	          0.05897063	          0.26548254	          0.26346941	          0.22163821	          0.05863197	          0.05000020	          0.05000001	          0.05000003	          0.05897059	          0.05897042	          0.56599252	          0.34396941	          0.17698068	          0.45727098	          0.57267000	          0.29704251	          0.05000000	          0.06799867	          0.08642947	          0.22663984	          0.07181578	          0.05000022	          0.21735844	          0.14398717	          0.07072467	          0.05000459	          0.05000069	          0.05897084	          0.05000002	          0.05160239	          0.19143888	          0.35877024	          0.23466709	          0.10897990	          0.13560916	          0.17131781	          0.08910374	          0.05000071	          0.05000933	          0.05897022	          0.06954952	          0.17860009	          0.36001042	          0.05897162	          0.05897195	          0.05896829	          0.13685375	          0.10605081	          0.12475911	          0.08875364	          0.17965671	          0.23228302	          0.14444785	          0.13312149	          0.13172080	          0.17166354	          0.20979339	          0.10674310	          0.17277590	          0.07982645	          0.22620666	          0.13795595	          0.06325457	          0.06937494	          0.06600892	
          1.64699029	         -2.88714460	          1.86462497	         -6.03425182	          2.06823932	          0.86012574	          0.00037081	         28.39892920	          3.40335885	         -0.41995343	        -15.65328732	         -2.11965975	          6.92076797	        -16.85699585	        -16.80721217	          4.38533276	         -1.89430654	          0.53825938	         16.30174013	         -0.77982661	        -12.38442920	          1.27290153	         28.55556902	         -0.40312065	         -0.80131333	          2.06780551	        -13.97172568	        -13.56536019	          5.51604771	          4.52865610	        -13.55376324	         15.81923416	         17.67453094	         39.87959344	         86.51662706	         86.51662706	          0.28871006	          0.32094978	          0.43775823	          0.32912204	          0.14398281	          0.32759382	          0.08199052	          0.11139920	          0.08875642	          0.06955052	          0.05000049	          0.06955064	          0.17818196	          0.27293231	          0.23044256	          0.14334036	          0.05000011	          0.05897119	          0.08575381	          0.23738903	          0.19027673	          0.12398335	          0.05897024	          0.05000031	          0.22419407	          0.13116052	          0.28578056	          0.05000010	          0.23765047	          0.26678916	          0.20887290	          0.05000003	          0.05000008	          0.05000052	          0.05000000	          0.05000012	          0.05000009	          0.67980859	          0.29164516	          0.15005857	          0.67989819	          0.62803682	          0.41919338	          0.06107455	          0.08202864	          0.07328191	          0.27853150	          0.06089151	          0.05000024	          0.19587614	          0.12208458	          0.06001263	          0.05000832	          0.05000025	          0.05000037	          0.05000109	          0.06955078	          0.16231743	          0.30419452	          0.19896981	          0.09240207	          0.11498048	          0.23714332	          0.07554952	          0.05893338	          0.05000118	          0.05000082	          0.05896981	          0.15475361	          0.35123521	          0.05000098	          0.05000147	          0.05000034	          0.11603572	          0.08991849	          0.10578090	          0.07525254	          0.15232752	          0.19694839	          0.12247460	          0.11287162	          0.11168368	          0.14555038	          0.22335394	          0.14039215	          0.15623915	          0.12464450	          0.24970133	          0.11697034	          0.09125109	          0.05882170	          0.05596772	
